<svg xmlns="http://www.w3.org/2000/svg" viewBox="0 0 800 600">
<g transform="translate(0,600) scale(0.1,-0.1)" fill="#211a52" stroke="none">
<path d="M5292 5905 c-265 -404 -569 -606 -1122 -745 -185 -46 -417 -91 -830 -159 -364 -61 -432 -74 -574 -112 -432 -117 -771 -332 -1160 -736 -88 -92 -91 -98 -123 -313 -27 -177 -24 -588 5 -775 75 -482 264 -926 550 -1292 l49 -63 7 158 c26 615 122 1052 315 1447 154 314 343 549 616 767 215 172 383 272 880 523 391 198 504 261 665 368 161 108 265 192 386 312 173 173 298 358 377 560 47 119 52 141 34 148 -10 4 -33 -24 -75 -88z"/>
<path d="M5561 5837 c-38 -151 -141 -378 -239 -525 -203 -305 -514 -574 -1297 -1122 -352 -246 -447 -321 -591 -464 -353 -353 -567 -776 -640 -1267 -24 -167 -29 -467 -10 -648 26 -246 75 -475 149 -705 l32 -98 77 -39 c230 -116 533 -206 843 -251 93 -13 598 -19 610 -6 4 3 -20 50 -53 105 -539 894 -664 1651 -388 2358 126 321 281 568 650 1035 388 492 587 778 712 1025 86 172 133 302 163 454 33 165 34 179 13 190 -16 9 -20 4 -31 -42z"/>
<path d="M5785 5648 c-43 -241 -126 -526 -215 -733 -91 -215 -188 -393 -446 -826 -100 -169 -205 -351 -233 -406 -281 -562 -358 -1085 -232 -1580 98 -382 330 -748 665 -1045 55 -48 104 -88 110 -88 19 0 257 139 353 206 233 163 465 379 621 580 48 62 95 126 104 142 l18 29 -48 18 c-223 84 -361 160 -540 295 -328 248 -502 506 -558 830 -20 116 -15 367 10 505 35 189 57 264 214 725 150 438 202 705 224 1147 9 185 9 248 0 267 -6 14 -16 26 -21 26 -5 0 -16 -42 -26 -92z"/>
</g>
</svg>
